<?xml version="1.0" encoding="UTF-8"?>
<svg version="1.1" xmlns="http://www.w3.org/2000/svg" width="175" height="175">
<path d="M0 0 C13.2 0 26.4 0 40 0 C40 2.31 40 4.62 40 7 C42.64 7 45.28 7 48 7 C48 9.64 48 12.28 48 15 C50.64 15 53.28 15 56 15 C56 20.28 56 25.56 56 31 C66.56 31 77.12 31 88 31 C88 33.64 88 36.28 88 39 C90.64 39 93.28 39 96 39 C96 41.64 96 44.28 96 47 C98.64 47 101.28 47 104 47 C104 60.2 104 73.4 104 87 C101.36 87 98.72 87 96 87 C96 89.64 96 92.28 96 95 C93.36 95 90.72 95 88 95 C88 97.64 88 100.28 88 103 C85.36 103 82.72 103 80 103 C80 105.64 80 108.28 80 111 C82.64 111 85.28 111 88 111 C88 113.64 88 116.28 88 119 C90.64 119 93.28 119 96 119 C96 132.2 96 145.4 96 159 C93.36 159 90.72 159 88 159 C88 161.64 88 164.28 88 167 C85.36 167 82.72 167 80 167 C80 169.64 80 172.28 80 175 C66.8 175 53.6 175 40 175 C40 172.36 40 169.72 40 167 C37.36 167 34.72 167 32 167 C32 164.36 32 161.72 32 159 C29.36 159 26.72 159 24 159 C24 156.36 24 153.72 24 151 C21.36 151 18.72 151 16 151 C16 153.64 16 156.28 16 159 C13.36 159 10.72 159 8 159 C8 161.64 8 164.28 8 167 C5.36 167 2.72 167 0 167 C0 169.64 0 172.28 0 175 C-13.2 175 -26.4 175 -40 175 C-40 172.36 -40 169.72 -40 167 C-42.64 167 -45.28 167 -48 167 C-48 164.36 -48 161.72 -48 159 C-50.64 159 -53.28 159 -56 159 C-56 145.8 -56 132.6 -56 119 C-53.36 119 -50.72 119 -48 119 C-48 116.36 -48 113.72 -48 111 C-45.36 111 -42.72 111 -40 111 C-40 108.36 -40 105.72 -40 103 C-42.64 103 -45.28 103 -48 103 C-48 100.36 -48 97.72 -48 95 C-50.64 95 -53.28 95 -56 95 C-56 92.36 -56 89.72 -56 87 C-58.64 87 -61.28 87 -64 87 C-64 73.8 -64 60.6 -64 47 C-61.36 47 -58.72 47 -56 47 C-56 44.36 -56 41.72 -56 39 C-53.36 39 -50.72 39 -48 39 C-48 36.36 -48 33.72 -48 31 C-37.44 31 -26.88 31 -16 31 C-16 25.72 -16 20.44 -16 15 C-13.36 15 -10.72 15 -8 15 C-8 12.36 -8 9.72 -8 7 C-5.36 7 -2.72 7 0 7 C0 4.69 0 2.38 0 0 Z " fill="#AB76A6" transform="translate(68,0)"/>
<path d="M0 0 C10.56 0 21.12 0 32 0 C32 2.64 32 5.28 32 8 C34.64 8 37.28 8 40 8 C40 5.36 40 2.72 40 0 C42.64 0 45.28 0 48 0 C48 2.64 48 5.28 48 8 C50.64 8 53.28 8 56 8 C56 10.64 56 13.28 56 16 C58.64 16 61.28 16 64 16 C64 26.56 64 37.12 64 48 C61.36 48 58.72 48 56 48 C56 50.64 56 53.28 56 56 C53.36 56 50.72 56 48 56 C48 58.64 48 61.28 48 64 C34.8 64 21.6 64 8 64 C8 61.36 8 58.72 8 56 C5.36 56 2.72 56 0 56 C0 53.36 0 50.72 0 48 C-2.64 48 -5.28 48 -8 48 C-8 34.8 -8 21.6 -8 8 C-5.36 8 -2.72 8 0 8 C0 5.36 0 2.72 0 0 Z " fill="#C98FB8" transform="translate(20,111)"/>
<path d="M0 0 C10.56 0 21.12 0 32 0 C32 2.64 32 5.28 32 8 C34.64 8 37.28 8 40 8 C40 21.2 40 34.4 40 48 C37.36 48 34.72 48 32 48 C32 50.64 32 53.28 32 56 C29.36 56 26.72 56 24 56 C24 58.64 24 61.28 24 64 C10.8 64 -2.4 64 -16 64 C-16 61.36 -16 58.72 -16 56 C-18.64 56 -21.28 56 -24 56 C-24 53.36 -24 50.72 -24 48 C-26.64 48 -29.28 48 -32 48 C-32 37.44 -32 26.88 -32 16 C-29.36 16 -26.72 16 -24 16 C-24 13.36 -24 10.72 -24 8 C-16.08 8 -8.16 8 0 8 C0 5.36 0 2.72 0 0 Z " fill="#C98FB8" transform="translate(124,111)"/>
<path d="M0 0 C7.92 0 15.84 0 24 0 C24 2.64 24 5.28 24 8 C26.64 8 29.28 8 32 8 C32 10.64 32 13.28 32 16 C34.64 16 37.28 16 40 16 C40 29.2 40 42.4 40 56 C37.36 56 34.72 56 32 56 C32 58.64 32 61.28 32 64 C29.36 64 26.72 64 24 64 C24 66.64 24 69.28 24 72 C13.44 72 2.88 72 -8 72 C-8 69.36 -8 66.72 -8 64 C-13.28 64 -18.56 64 -24 64 C-24 58.72 -24 53.44 -24 48 C-21.36 48 -18.72 48 -16 48 C-16 40.08 -16 32.16 -16 24 C-13.36 24 -10.72 24 -8 24 C-8 18.72 -8 13.44 -8 8 C-5.36 8 -2.72 8 0 8 C0 5.36 0 2.72 0 0 Z " fill="#C98FB8" transform="translate(132,31)"/>
<path d="M0 0 C5.28 0 10.56 0 16 0 C16 2.64 16 5.28 16 8 C21.28 8 26.56 8 32 8 C32 13.28 32 18.56 32 24 C34.64 24 37.28 24 40 24 C40 31.92 40 39.84 40 48 C42.64 48 45.28 48 48 48 C48 53.28 48 58.56 48 64 C42.72 64 37.44 64 32 64 C32 66.64 32 69.28 32 72 C21.44 72 10.88 72 0 72 C0 69.36 0 66.72 0 64 C-2.64 64 -5.28 64 -8 64 C-8 61.36 -8 58.72 -8 56 C-10.64 56 -13.28 56 -16 56 C-16 42.8 -16 29.6 -16 16 C-13.36 16 -10.72 16 -8 16 C-8 13.36 -8 10.72 -8 8 C-5.36 8 -2.72 8 0 8 C0 5.36 0 2.72 0 0 Z " fill="#C98FB8" transform="translate(20,31)"/>
<path d="M0 0 C13.2 0 26.4 0 40 0 C40 2.31 40 4.62 40 7 C42.64 7 45.28 7 48 7 C48 20.2 48 33.4 48 47 C45.36 47 42.72 47 40 47 C40 52.28 40 57.56 40 63 C37.36 63 34.72 63 32 63 C32 60.36 32 57.72 32 55 C29.36 55 26.72 55 24 55 C24 60.28 24 65.56 24 71 C21.36 71 18.72 71 16 71 C16 68.36 16 65.72 16 63 C10.72 63 5.44 63 0 63 C0 57.72 0 52.44 0 47 C-2.64 47 -5.28 47 -8 47 C-8 33.8 -8 20.6 -8 7 C-5.36 7 -2.72 7 0 7 C0 4.69 0 2.38 0 0 Z " fill="#C98FB8" transform="translate(68,0)"/>
<path d="M0 0 C2.64 0 5.28 0 8 0 C8 10.56 8 21.12 8 32 C10.64 32 13.28 32 16 32 C16 37.28 16 42.56 16 48 C21.28 48 26.56 48 32 48 C32 50.64 32 53.28 32 56 C34.64 56 37.28 56 40 56 C40 50.72 40 45.44 40 40 C42.64 40 45.28 40 48 40 C48 42.64 48 45.28 48 48 C50.64 48 53.28 48 56 48 C56 42.72 56 37.44 56 32 C58.64 32 61.28 32 64 32 C64 21.44 64 10.88 64 0 C66.64 0 69.28 0 72 0 C72 5.28 72 10.56 72 16 C74.64 16 77.28 16 80 16 C80 18.64 80 21.28 80 24 C77.36 24 74.72 24 72 24 C72 29.28 72 34.56 72 40 C69.36 40 66.72 40 64 40 C64 47.92 64 55.84 64 64 C58.72 64 53.44 64 48 64 C48 66.64 48 69.28 48 72 C40.08 72 32.16 72 24 72 C24 69.36 24 66.72 24 64 C18.72 64 13.44 64 8 64 C8 56.08 8 48.16 8 40 C5.36 40 2.72 40 0 40 C0 34.72 0 29.44 0 24 C-5.28 24 -10.56 24 -16 24 C-16 21.36 -16 18.72 -16 16 C-10.72 16 -5.44 16 0 16 C0 10.72 0 5.44 0 0 Z " fill="#AB76A6" transform="translate(52,15)"/>
<path d="M0 0 C5.28 0 10.56 0 16 0 C16 2.64 16 5.28 16 8 C21.28 8 26.56 8 32 8 C32 10.64 32 13.28 32 16 C24.08 16 16.16 16 8 16 C8 18.64 8 21.28 8 24 C5.36 24 2.72 24 0 24 C0 34.56 0 45.12 0 56 C-5.28 56 -10.56 56 -16 56 C-16 42.8 -16 29.6 -16 16 C-13.36 16 -10.72 16 -8 16 C-8 13.36 -8 10.72 -8 8 C-5.36 8 -2.72 8 0 8 C0 5.36 0 2.72 0 0 Z " fill="#EBB0E0" transform="translate(20,31)"/>
<path d="M0 0 C2.64 0 5.28 0 8 0 C8 2.64 8 5.28 8 8 C15.92 8 23.84 8 32 8 C32 5.36 32 2.72 32 0 C34.64 0 37.28 0 40 0 C40 5.28 40 10.56 40 16 C45.28 16 50.56 16 56 16 C56 18.64 56 21.28 56 24 C45.44 24 34.88 24 24 24 C24 26.64 24 29.28 24 32 C21.36 32 18.72 32 16 32 C16 29.36 16 26.72 16 24 C5.44 24 -5.12 24 -16 24 C-16 21.36 -16 18.72 -16 16 C-10.72 16 -5.44 16 0 16 C0 10.72 0 5.44 0 0 Z " fill="#A6519A" transform="translate(68,79)"/>
<path d="M0 0 C13.2 0 26.4 0 40 0 C40 2.31 40 4.62 40 7 C42.64 7 45.28 7 48 7 C48 14.92 48 22.84 48 31 C45.36 31 42.72 31 40 31 C40 25.72 40 20.44 40 15 C34.72 15 29.44 15 24 15 C24 12.36 24 9.72 24 7 C18.72 7 13.44 7 8 7 C8 9.64 8 12.28 8 15 C5.36 15 2.72 15 0 15 C0 20.28 0 25.56 0 31 C-2.64 31 -5.28 31 -8 31 C-8 23.08 -8 15.16 -8 7 C-5.36 7 -2.72 7 0 7 C0 4.69 0 2.38 0 0 Z " fill="#FCC7F2" transform="translate(68,0)"/>
<path d="M0 0 C7.92 0 15.84 0 24 0 C24 2.64 24 5.28 24 8 C26.64 8 29.28 8 32 8 C32 10.64 32 13.28 32 16 C34.64 16 37.28 16 40 16 C40 23.92 40 31.84 40 40 C37.36 40 34.72 40 32 40 C32 34.72 32 29.44 32 24 C29.36 24 26.72 24 24 24 C24 21.36 24 18.72 24 16 C13.44 16 2.88 16 -8 16 C-8 13.36 -8 10.72 -8 8 C-5.36 8 -2.72 8 0 8 C0 5.36 0 2.72 0 0 Z " fill="#EFB6E5" transform="translate(132,31)"/>
<path d="M0 0 C2.64 0 5.28 0 8 0 C8 5.28 8 10.56 8 16 C13.28 16 18.56 16 24 16 C24 18.64 24 21.28 24 24 C16.08 24 8.16 24 0 24 C0 21.36 0 18.72 0 16 C-2.64 16 -5.28 16 -8 16 C-8 13.36 -8 10.72 -8 8 C-5.36 8 -2.72 8 0 8 C0 5.36 0 2.72 0 0 Z " fill="#A6519A" transform="translate(100,79)"/>
<path d="M0 0 C2.64 0 5.28 0 8 0 C8 13.2 8 26.4 8 40 C5.36 40 2.72 40 0 40 C0 26.8 0 13.6 0 0 Z " fill="#AB76A6" transform="translate(84,111)"/>
<path d="M0 0 C2.64 0 5.28 0 8 0 C8 2.64 8 5.28 8 8 C10.64 8 13.28 8 16 8 C16 10.64 16 13.28 16 16 C13.36 16 10.72 16 8 16 C8 18.64 8 21.28 8 24 C5.36 24 2.72 24 0 24 C0 21.36 0 18.72 0 16 C-2.64 16 -5.28 16 -8 16 C-8 13.36 -8 10.72 -8 8 C-5.36 8 -2.72 8 0 8 C0 5.36 0 2.72 0 0 Z " fill="#783C70" transform="translate(84,87)"/>
<path d="M0 0 C7.92 0 15.84 0 24 0 C24 7.92 24 15.84 24 24 C21.36 24 18.72 24 16 24 C16 18.72 16 13.44 16 8 C10.72 8 5.44 8 0 8 C0 5.36 0 2.72 0 0 Z " fill="#EBB0E0" transform="translate(92,7)"/>
<path d="M0 0 C5.28 0 10.56 0 16 0 C16 5.28 16 10.56 16 16 C10.72 16 5.44 16 0 16 C0 10.72 0 5.44 0 0 Z " fill="#FCC7F2" transform="translate(12,119)"/>
<path d="M0 0 C2.64 0 5.28 0 8 0 C8 2.64 8 5.28 8 8 C10.64 8 13.28 8 16 8 C16 10.64 16 13.28 16 16 C13.36 16 10.72 16 8 16 C8 18.64 8 21.28 8 24 C5.36 24 2.72 24 0 24 C0 16.08 0 8.16 0 0 Z " fill="#A6519A" transform="translate(92,103)"/>
<path d="M0 0 C2.64 0 5.28 0 8 0 C8 7.92 8 15.84 8 24 C5.36 24 2.72 24 0 24 C0 21.36 0 18.72 0 16 C-2.64 16 -5.28 16 -8 16 C-8 13.36 -8 10.72 -8 8 C-5.36 8 -2.72 8 0 8 C0 5.36 0 2.72 0 0 Z " fill="#A6519A" transform="translate(76,103)"/>
<path d="M0 0 C2.64 0 5.28 0 8 0 C8 10.56 8 21.12 8 32 C5.36 32 2.72 32 0 32 C0 21.44 0 10.88 0 0 Z " fill="#FCC7F2" transform="translate(4,47)"/>
<path d="M0 0 C5.28 0 10.56 0 16 0 C16 2.64 16 5.28 16 8 C13.36 8 10.72 8 8 8 C8 13.28 8 18.56 8 24 C5.36 24 2.72 24 0 24 C0 16.08 0 8.16 0 0 Z " fill="#EBB0E0" transform="translate(60,7)"/>
<path d="M0 0 C7.92 0 15.84 0 24 0 C24 2.64 24 5.28 24 8 C16.08 8 8.16 8 0 8 C0 5.36 0 2.72 0 0 Z " fill="#FCC7F2" transform="translate(124,167)"/>
<path d="M0 0 C7.92 0 15.84 0 24 0 C24 2.64 24 5.28 24 8 C16.08 8 8.16 8 0 8 C0 5.36 0 2.72 0 0 Z " fill="#FCC7F2" transform="translate(28,167)"/>
<path d="M0 0 C5.28 0 10.56 0 16 0 C16 5.28 16 10.56 16 16 C13.36 16 10.72 16 8 16 C8 13.36 8 10.72 8 8 C5.36 8 2.72 8 0 8 C0 5.36 0 2.72 0 0 Z " fill="#EBB0E0" transform="translate(12,87)"/>
<path d="M0 0 C7.92 0 15.84 0 24 0 C24 2.64 24 5.28 24 8 C16.08 8 8.16 8 0 8 C0 5.36 0 2.72 0 0 Z " fill="#FCC7F2" transform="translate(132,31)"/>
<path d="M0 0 C5.28 0 10.56 0 16 0 C16 2.64 16 5.28 16 8 C10.72 8 5.44 8 0 8 C0 5.36 0 2.72 0 0 Z " fill="#AB76A6" transform="translate(108,167)"/>
<path d="M0 0 C5.28 0 10.56 0 16 0 C16 2.64 16 5.28 16 8 C10.72 8 5.44 8 0 8 C0 5.36 0 2.72 0 0 Z " fill="#AB76A6" transform="translate(52,167)"/>
<path d="M0 0 C2.64 0 5.28 0 8 0 C8 5.28 8 10.56 8 16 C5.36 16 2.72 16 0 16 C0 10.72 0 5.44 0 0 Z " fill="#DE97D2" transform="translate(92,127)"/>
<path d="M0 0 C2.64 0 5.28 0 8 0 C8 5.28 8 10.56 8 16 C5.36 16 2.72 16 0 16 C0 10.72 0 5.44 0 0 Z " fill="#DE97D2" transform="translate(76,127)"/>
<path d="M0 0 C2.64 0 5.28 0 8 0 C8 5.28 8 10.56 8 16 C5.36 16 2.72 16 0 16 C0 10.72 0 5.44 0 0 Z " fill="#AB76A6" transform="translate(156,119)"/>
<path d="M0 0 C2.64 0 5.28 0 8 0 C8 5.28 8 10.56 8 16 C5.36 16 2.72 16 0 16 C0 10.72 0 5.44 0 0 Z " fill="#A6519A" transform="translate(84,71)"/>
<path d="M0 0 C2.64 0 5.28 0 8 0 C8 5.28 8 10.56 8 16 C5.36 16 2.72 16 0 16 C0 10.72 0 5.44 0 0 Z " fill="#A6519A" transform="translate(92,55)"/>
<path d="M0 0 C5.28 0 10.56 0 16 0 C16 2.64 16 5.28 16 8 C10.72 8 5.44 8 0 8 C0 5.36 0 2.72 0 0 Z " fill="#FCC7F2" transform="translate(20,31)"/>
<path d="M0 0 C2.64 0 5.28 0 8 0 C8 5.28 8 10.56 8 16 C5.36 16 2.72 16 0 16 C0 10.72 0 5.44 0 0 Z " fill="#EBB0E0" transform="translate(108,15)"/>
<path d="M0 0 C5.28 0 10.56 0 16 0 C16 2.64 16 5.28 16 8 C10.72 8 5.44 8 0 8 C0 5.36 0 2.72 0 0 Z " fill="#EBB0E0" transform="translate(60,7)"/>
<path d="M0 0 C2.64 0 5.28 0 8 0 C8 2.64 8 5.28 8 8 C5.36 8 2.72 8 0 8 C0 5.36 0 2.72 0 0 Z " fill="#EBB0E0" transform="translate(44,167)"/>
<path d="M0 0 C2.64 0 5.28 0 8 0 C8 2.64 8 5.28 8 8 C5.36 8 2.72 8 0 8 C0 5.36 0 2.72 0 0 Z " fill="#FCC7F2" transform="translate(148,159)"/>
<path d="M0 0 C2.64 0 5.28 0 8 0 C8 2.64 8 5.28 8 8 C5.36 8 2.72 8 0 8 C0 5.36 0 2.72 0 0 Z " fill="#AB76A6" transform="translate(100,159)"/>
<path d="M0 0 C2.64 0 5.28 0 8 0 C8 2.64 8 5.28 8 8 C5.36 8 2.72 8 0 8 C0 5.36 0 2.72 0 0 Z " fill="#AB76A6" transform="translate(68,159)"/>
<path d="M0 0 C2.64 0 5.28 0 8 0 C8 2.64 8 5.28 8 8 C5.36 8 2.72 8 0 8 C0 5.36 0 2.72 0 0 Z " fill="#FCC7F2" transform="translate(20,159)"/>
<path d="M0 0 C2.64 0 5.28 0 8 0 C8 2.64 8 5.28 8 8 C5.36 8 2.72 8 0 8 C0 5.36 0 2.72 0 0 Z " fill="#FCC7F2" transform="translate(156,151)"/>
<path d="M0 0 C2.64 0 5.28 0 8 0 C8 2.64 8 5.28 8 8 C5.36 8 2.72 8 0 8 C0 5.36 0 2.72 0 0 Z " fill="#AB76A6" transform="translate(92,151)"/>
<path d="M0 0 C2.64 0 5.28 0 8 0 C8 2.64 8 5.28 8 8 C5.36 8 2.72 8 0 8 C0 5.36 0 2.72 0 0 Z " fill="#AB76A6" transform="translate(76,151)"/>
<path d="M0 0 C2.64 0 5.28 0 8 0 C8 2.64 8 5.28 8 8 C5.36 8 2.72 8 0 8 C0 5.36 0 2.72 0 0 Z " fill="#FCC7F2" transform="translate(12,151)"/>
<path d="M0 0 C2.64 0 5.28 0 8 0 C8 2.64 8 5.28 8 8 C5.36 8 2.72 8 0 8 C0 5.36 0 2.72 0 0 Z " fill="#FCC7F2" transform="translate(156,135)"/>
<path d="M0 0 C2.64 0 5.28 0 8 0 C8 2.64 8 5.28 8 8 C5.36 8 2.72 8 0 8 C0 5.36 0 2.72 0 0 Z " fill="#783C70" transform="translate(100,127)"/>
<path d="M0 0 C2.64 0 5.28 0 8 0 C8 2.64 8 5.28 8 8 C5.36 8 2.72 8 0 8 C0 5.36 0 2.72 0 0 Z " fill="#F7A8EA" transform="translate(92,127)"/>
<path d="M0 0 C2.64 0 5.28 0 8 0 C8 2.64 8 5.28 8 8 C5.36 8 2.72 8 0 8 C0 5.36 0 2.72 0 0 Z " fill="#F7A8EA" transform="translate(76,127)"/>
<path d="M0 0 C2.64 0 5.28 0 8 0 C8 2.64 8 5.28 8 8 C5.36 8 2.72 8 0 8 C0 5.36 0 2.72 0 0 Z " fill="#783C70" transform="translate(68,127)"/>
<path d="M0 0 C2.64 0 5.28 0 8 0 C8 2.64 8 5.28 8 8 C5.36 8 2.72 8 0 8 C0 5.36 0 2.72 0 0 Z " fill="#EBB0E0" transform="translate(20,127)"/>
<path d="M0 0 C2.64 0 5.28 0 8 0 C8 2.64 8 5.28 8 8 C5.36 8 2.72 8 0 8 C0 5.36 0 2.72 0 0 Z " fill="#DE97D2" transform="translate(68,119)"/>
<path d="M0 0 C2.64 0 5.28 0 8 0 C8 2.64 8 5.28 8 8 C5.36 8 2.72 8 0 8 C0 5.36 0 2.72 0 0 Z " fill="#AB76A6" transform="translate(148,111)"/>
<path d="M0 0 C2.64 0 5.28 0 8 0 C8 2.64 8 5.28 8 8 C5.36 8 2.72 8 0 8 C0 5.36 0 2.72 0 0 Z " fill="#783C70" transform="translate(116,111)"/>
<path d="M0 0 C2.64 0 5.28 0 8 0 C8 2.64 8 5.28 8 8 C5.36 8 2.72 8 0 8 C0 5.36 0 2.72 0 0 Z " fill="#DE97D2" transform="translate(60,111)"/>
<path d="M0 0 C2.64 0 5.28 0 8 0 C8 2.64 8 5.28 8 8 C5.36 8 2.72 8 0 8 C0 5.36 0 2.72 0 0 Z " fill="#783C70" transform="translate(52,111)"/>
<path d="M0 0 C2.64 0 5.28 0 8 0 C8 2.64 8 5.28 8 8 C5.36 8 2.72 8 0 8 C0 5.36 0 2.72 0 0 Z " fill="#AB76A6" transform="translate(20,111)"/>
<path d="M0 0 C2.64 0 5.28 0 8 0 C8 2.64 8 5.28 8 8 C5.36 8 2.72 8 0 8 C0 5.36 0 2.72 0 0 Z " fill="#91498B" transform="translate(92,103)"/>
<path d="M0 0 C2.64 0 5.28 0 8 0 C8 2.64 8 5.28 8 8 C5.36 8 2.72 8 0 8 C0 5.36 0 2.72 0 0 Z " fill="#91498B" transform="translate(76,103)"/>
<path d="M0 0 C2.64 0 5.28 0 8 0 C8 2.64 8 5.28 8 8 C5.36 8 2.72 8 0 8 C0 5.36 0 2.72 0 0 Z " fill="#AB76A6" transform="translate(148,95)"/>
<path d="M0 0 C2.64 0 5.28 0 8 0 C8 2.64 8 5.28 8 8 C5.36 8 2.72 8 0 8 C0 5.36 0 2.72 0 0 Z " fill="#783C70" transform="translate(116,95)"/>
<path d="M0 0 C2.64 0 5.28 0 8 0 C8 2.64 8 5.28 8 8 C5.36 8 2.72 8 0 8 C0 5.36 0 2.72 0 0 Z " fill="#783C70" transform="translate(52,95)"/>
<path d="M0 0 C2.64 0 5.28 0 8 0 C8 2.64 8 5.28 8 8 C5.36 8 2.72 8 0 8 C0 5.36 0 2.72 0 0 Z " fill="#EBB0E0" transform="translate(28,95)"/>
<path d="M0 0 C2.64 0 5.28 0 8 0 C8 2.64 8 5.28 8 8 C5.36 8 2.72 8 0 8 C0 5.36 0 2.72 0 0 Z " fill="#AB76A6" transform="translate(20,95)"/>
<path d="M0 0 C2.64 0 5.28 0 8 0 C8 2.64 8 5.28 8 8 C5.36 8 2.72 8 0 8 C0 5.36 0 2.72 0 0 Z " fill="#AB76A6" transform="translate(156,87)"/>
<path d="M0 0 C2.64 0 5.28 0 8 0 C8 2.64 8 5.28 8 8 C5.36 8 2.72 8 0 8 C0 5.36 0 2.72 0 0 Z " fill="#DE97D2" transform="translate(108,87)"/>
<path d="M0 0 C2.64 0 5.28 0 8 0 C8 2.64 8 5.28 8 8 C5.36 8 2.72 8 0 8 C0 5.36 0 2.72 0 0 Z " fill="#91498B" transform="translate(92,87)"/>
<path d="M0 0 C2.64 0 5.28 0 8 0 C8 2.64 8 5.28 8 8 C5.36 8 2.72 8 0 8 C0 5.36 0 2.72 0 0 Z " fill="#91498B" transform="translate(76,87)"/>
<path d="M0 0 C2.64 0 5.28 0 8 0 C8 2.64 8 5.28 8 8 C5.36 8 2.72 8 0 8 C0 5.36 0 2.72 0 0 Z " fill="#DE97D2" transform="translate(60,87)"/>
<path d="M0 0 C2.64 0 5.28 0 8 0 C8 2.64 8 5.28 8 8 C5.36 8 2.72 8 0 8 C0 5.36 0 2.72 0 0 Z " fill="#AB76A6" transform="translate(12,87)"/>
<path d="M0 0 C2.64 0 5.28 0 8 0 C8 2.64 8 5.28 8 8 C5.36 8 2.72 8 0 8 C0 5.36 0 2.72 0 0 Z " fill="#DE97D2" transform="translate(76,79)"/>
<path d="M0 0 C2.64 0 5.28 0 8 0 C8 2.64 8 5.28 8 8 C5.36 8 2.72 8 0 8 C0 5.36 0 2.72 0 0 Z " fill="#783C70" transform="translate(108,71)"/>
<path d="M0 0 C2.64 0 5.28 0 8 0 C8 2.64 8 5.28 8 8 C5.36 8 2.72 8 0 8 C0 5.36 0 2.72 0 0 Z " fill="#783C70" transform="translate(60,71)"/>
<path d="M0 0 C2.64 0 5.28 0 8 0 C8 2.64 8 5.28 8 8 C5.36 8 2.72 8 0 8 C0 5.36 0 2.72 0 0 Z " fill="#EBB0E0" transform="translate(164,63)"/>
<path d="M0 0 C2.64 0 5.28 0 8 0 C8 2.64 8 5.28 8 8 C5.36 8 2.72 8 0 8 C0 5.36 0 2.72 0 0 Z " fill="#783C70" transform="translate(76,63)"/>
<path d="M0 0 C2.64 0 5.28 0 8 0 C8 2.64 8 5.28 8 8 C5.36 8 2.72 8 0 8 C0 5.36 0 2.72 0 0 Z " fill="#783C70" transform="translate(92,55)"/>
<path d="M0 0 C2.64 0 5.28 0 8 0 C8 2.64 8 5.28 8 8 C5.36 8 2.72 8 0 8 C0 5.36 0 2.72 0 0 Z " fill="#FCC7F2" transform="translate(156,39)"/>
<path d="M0 0 C2.64 0 5.28 0 8 0 C8 2.64 8 5.28 8 8 C5.36 8 2.72 8 0 8 C0 5.36 0 2.72 0 0 Z " fill="#FCC7F2" transform="translate(12,39)"/>
<path d="M0 0 C2.64 0 5.28 0 8 0 C8 2.64 8 5.28 8 8 C5.36 8 2.72 8 0 8 C0 5.36 0 2.72 0 0 Z " fill="#FCC7F2" transform="translate(108,7)"/>
<path d="M0 0 C2.64 0 5.28 0 8 0 C8 2.64 8 5.28 8 8 C5.36 8 2.72 8 0 8 C0 5.36 0 2.72 0 0 Z " fill="#FCC7F2" transform="translate(60,7)"/>
</svg>
